<?xml version="1.0" encoding="iso-8859-1"?>
<!-- Generator: Adobe Illustrator 16.0.0, SVG Export Plug-In . SVG Version: 6.00 Build 0)  -->
<!DOCTYPE svg PUBLIC "-//W3C//DTD SVG 1.1//EN" "http://www.w3.org/Graphics/SVG/1.1/DTD/svg11.dtd">
<svg version="1.1" id="Capa_1" xmlns="http://www.w3.org/2000/svg" xmlns:xlink="http://www.w3.org/1999/xlink" x="0px" y="0px"
	 width="368.073px" height="368.072px" viewBox="0 0 368.073 368.072" style="enable-background:new 0 0 368.073 368.072;"
	 xml:space="preserve">
<g>
	<g>
		<path d="M339.438,228.969c-21.195,1.307-49.059,22.476-75.922,34.647c-32.952,14.917-84.22,2.924-84.23,2.924
			c7.905-3.711,40.057-11.368,46.537-14.208c34.408-15.146,31.479-46.699,15.094-46.441c-21.641,0.363-34.363,5.678-77.574,11.569
			c-32.748,4.452-71.473,2.823-90.053,9.917C47.066,237.395,4.84,304.786,4.84,304.786l65.316,63.286
			c0,0,40.426-39.817,60.094-39.817c44.821,0,46.619-0.605,88.239-2.863c17.713-0.948,21.406-1.675,31.521-5.087
			c53.959-18.242,111.881-66.819,112.947-72.666C365.436,234.105,350.618,228.271,339.438,228.969z"/>
		<path d="M206.872,63.157c-0.963,19.947-3.787,39.838-7.553,59.462c-11.662,3.256-25.308,12.646-41.396,28.452
			c-13.996,13.749-24.616,27.301-25.062,27.871c-2.353,3.013-2.782,7.104-1.105,10.54c1.676,3.436,5.164,5.615,8.987,5.615h135
			c3.822,0,7.311-2.181,8.986-5.615c1.678-3.437,1.248-7.526-1.105-10.54c-0.445-0.57-11.064-14.122-25.061-27.871
			c-15.627-15.352-28.947-24.648-40.386-28.154c0.101-1.796,0.2-3.591,0.28-5.389c0.549-12.151,0.746-24.325,0.426-36.486
			c-0.33-12.569-1.12-25.232-3.381-37.618c-1.037-5.687-2.396-11.302-4.426-16.721c-0.707-1.887-1.758-3.912-4.195-3.335
			c-1.174,0.276-2.105,1.228-2.358,2.407c-0.175,0.811,0.062,1.583,0.247,2.365C207.466,39.551,207.434,51.505,206.872,63.157z"/>
		<path d="M111.086,30.96c6.975,14.25,14.873,24.248,24.275,30.544c9.337,6.289,21.486,10.625,33.375,11.833
			c2.09,0.201,4.155,0.335,6.135,0.335c9.002,0,16.311-2.225,21.665-6.55c0.328-0.298,0.643-0.679,0.68-1.128
			c0.031-0.447-0.237-0.893-0.512-1.234c-2.758-2.96-6.006-5.429-9.153-7.825l-0.417-0.297c-5.061-3.851-10.256-7.438-14.227-10.127
			c-1.564-1.04-3.084-2.09-4.709-3.152c6.748,3.152,13.709,6.178,20.924,8.651c3.744,1.268,8,2.736,12.31,2.795
			c0,0,2.405,0.168,2.628-1.466c0.092-0.695,0.117-1.402,0.135-2.133c0.029-1.544-0.072-3.143-0.311-4.75
			c-0.52-3.049-1.516-6.2-2.967-9.382c-2.978-6.405-7.637-12.552-13.897-18.34c-6.937-6.425-14.397-11.389-21.534-14.288
			C158.302,1.494,149.891,0,140.471,0c-5.686,0-11.754,0.522-18.49,1.594c-5.047,0.823-17.441,2.997-19.256,5.057
			c-0.381,0.455-0.092,1.54,0.053,2.112C104.779,16.13,107.347,23.308,111.086,30.96z"/>
		<path d="M223.054,54.806c4.31-0.059,8.565-1.527,12.31-2.795c7.215-2.474,14.176-5.499,20.924-8.651
			c-1.625,1.062-3.145,2.113-4.709,3.152c-3.971,2.689-9.166,6.276-14.227,10.127l-0.416,0.297
			c-3.148,2.396-6.396,4.864-9.154,7.825c-0.273,0.341-0.543,0.787-0.512,1.234c0.037,0.449,0.352,0.83,0.68,1.128
			c5.354,4.325,12.662,6.55,21.664,6.55c1.979,0,4.045-0.135,6.135-0.335c11.889-1.208,24.039-5.544,33.375-11.833
			c9.402-6.296,17.301-16.293,24.275-30.544c3.738-7.651,6.307-14.83,8.309-22.196c0.146-0.572,0.436-1.657,0.053-2.112
			c-1.812-2.06-14.209-4.233-19.256-5.057c-6.734-1.071-12.805-1.594-18.488-1.594c-9.422,0-17.832,1.494-25.016,4.446
			c-7.137,2.899-14.598,7.863-21.533,14.288c-6.262,5.789-10.921,11.936-13.896,18.34c-1.451,3.182-2.449,6.333-2.968,9.382
			c-0.237,1.607-0.34,3.206-0.312,4.75c0.019,0.731,0.043,1.438,0.136,2.133C220.648,54.974,223.054,54.806,223.054,54.806z"/>
	</g>
</g>
<g>
</g>
<g>
</g>
<g>
</g>
<g>
</g>
<g>
</g>
<g>
</g>
<g>
</g>
<g>
</g>
<g>
</g>
<g>
</g>
<g>
</g>
<g>
</g>
<g>
</g>
<g>
</g>
<g>
</g>
</svg>
