<?xml version="1.0" encoding="iso-8859-1"?>
<!-- Generator: Adobe Illustrator 17.1.0, SVG Export Plug-In . SVG Version: 6.00 Build 0)  -->
<!DOCTYPE svg PUBLIC "-//W3C//DTD SVG 1.1//EN" "http://www.w3.org/Graphics/SVG/1.1/DTD/svg11.dtd">
<svg version="1.1" id="Capa_1" xmlns="http://www.w3.org/2000/svg" xmlns:xlink="http://www.w3.org/1999/xlink" x="0px" y="0px"
	 viewBox="0 0 221.412 221.412" style="enable-background:new 0 0 221.412 221.412;" xml:space="preserve">
<path d="M188.524,156.013c-6.198,37.059-38.479,65.4-77.271,65.4c-43.21,0-78.364-35.154-78.364-78.363
	c0-16.247,4.981-31.348,13.481-43.876c0.109,0.495,0.232,0.991,0.378,1.494c0.703,2.416,1.79,4.982,2.867,8.252
	c0.461,1.401,0.921,2.932,1.346,4.636c0.568,2.272,0.97,4.07,1.26,5.582c0.145,0.756,0.262,1.44,0.357,2.075
	c0.143,0.953,0.238,1.798,0.307,2.612c0.069,0.814,0.112,1.598,0.152,2.43c0.053,1.109,0.101,2.304,0.195,3.771
	c0.213,3.301,1.624,5.824,4.031,8.443c0.535,0.582,1.119,1.169,1.75,1.771c0.315,0.301,0.643,0.605,0.981,0.914
	c1.355,1.236,2.893,2.55,4.597,4.017c1.278,1.1,2.349,2.227,3.232,3.381c0.294,0.385,0.567,0.772,0.82,1.162
	c0.759,1.171,1.334,2.369,1.745,3.594c0.273,0.816,0.473,1.645,0.605,2.485c0.46,2.94,0.082,6.025-0.912,9.256
	c-0.71,2.307-1.013,4.3-1.014,6.187c0,0.377,0.012,0.75,0.035,1.121c0.047,0.741,0.138,1.472,0.268,2.205
	c0.26,1.467,0.674,2.946,1.189,4.544c0.515,1.597,1.13,3.313,1.793,5.253c0.263,0.771,0.46,1.529,0.626,2.279
	c0.391,1.76,0.55,3.449,0.552,4.98c0,0.171,0.021,0.333,0.051,0.49c0.009,0.047,0.021,0.091,0.033,0.136
	c0.028,0.112,0.063,0.219,0.105,0.323c0.017,0.042,0.033,0.085,0.052,0.125c0.06,0.128,0.129,0.249,0.208,0.362
	c0.005,0.007,0.008,0.014,0.013,0.021c0.086,0.118,0.184,0.225,0.288,0.325c0.031,0.03,0.064,0.056,0.096,0.084
	c0.08,0.069,0.163,0.133,0.251,0.191c0.037,0.024,0.072,0.049,0.11,0.071c0.111,0.066,0.226,0.124,0.345,0.173
	c0.014,0.005,0.026,0.013,0.04,0.018c0.133,0.052,0.271,0.089,0.411,0.118c0.04,0.008,0.081,0.013,0.122,0.019
	c0.105,0.017,0.21,0.027,0.316,0.03c0.026,0.001,0.052,0.007,0.078,0.007c0.018,0,0.036-0.005,0.054-0.005
	c0.134-0.003,0.267-0.015,0.4-0.04c0.013-0.002,0.026-0.002,0.039-0.005c0.145-0.03,0.287-0.076,0.427-0.133
	c0.04-0.016,0.078-0.036,0.117-0.055c0.104-0.049,0.206-0.106,0.305-0.172c0.039-0.026,0.078-0.05,0.116-0.079
	c0.13-0.097,0.256-0.203,0.373-0.331c0.753-0.823,1.544-1.679,2.353-2.561c0.809-0.882,1.637-1.789,2.465-2.715
	c0.828-0.926,1.656-1.869,2.466-2.824c2.025-2.386,3.937-4.838,5.448-7.239c0.302-0.48,0.588-0.958,0.856-1.433
	c0.804-1.425,1.442-2.824,1.854-4.17c0.137-0.449,0.249-0.892,0.334-1.328c0.341-1.762,0.497-3.347,0.497-4.779
	c-0.001-1.909-0.279-3.545-0.765-4.962c-0.122-0.354-0.256-0.695-0.403-1.023c-0.879-1.967-2.188-3.472-3.693-4.699
	c-0.251-0.204-0.507-0.401-0.767-0.591c-0.521-0.38-1.059-0.732-1.606-1.063c-0.273-0.166-0.549-0.326-0.826-0.482
	c-0.554-0.312-1.111-0.607-1.665-0.892c-0.554-0.284-1.103-0.558-1.639-0.829c-1.877-0.946-3.594-1.845-4.781-2.99
	c-0.508-0.49-0.919-1.026-1.203-1.629c-0.247-0.526-0.489-1.099-0.722-1.704c-0.153-0.397-0.3-0.809-0.442-1.234
	c-0.283-0.849-0.541-1.746-0.761-2.674c-0.092-0.387-0.177-0.779-0.254-1.175c-0.09-0.459-0.169-0.923-0.236-1.39
	c-0.169-1.169-0.264-2.353-0.258-3.516c0.003-0.56,0.029-1.115,0.08-1.66c0.052-0.546,0.129-1.082,0.235-1.606
	c0.106-0.523,0.24-1.034,0.406-1.526c0.166-0.493,0.362-0.968,0.593-1.422c0.346-0.681,0.769-1.314,1.277-1.885
	c0.339-0.38,0.716-0.733,1.133-1.054c0.835-0.642,1.833-1.157,3.017-1.512c0.426-0.128,0.842-0.219,1.25-0.281
	c0.137-0.021,0.268-0.022,0.403-0.036c0.267-0.028,0.534-0.057,0.793-0.06c0.335-0.003,0.665,0.012,0.987,0.049
	c0.013,0.002,0.027,0.001,0.04,0.002c0.338,0.041,0.668,0.106,0.991,0.187c0.108,0.027,0.211,0.064,0.317,0.095
	c0.213,0.063,0.425,0.128,0.632,0.206c0.121,0.046,0.238,0.098,0.357,0.149c0.186,0.08,0.37,0.163,0.55,0.255
	c0.119,0.061,0.237,0.124,0.354,0.19c0.174,0.098,0.345,0.2,0.513,0.308c0.111,0.071,0.223,0.142,0.332,0.217
	c0.171,0.118,0.338,0.243,0.503,0.37c0.097,0.075,0.196,0.147,0.291,0.225c0.188,0.154,0.37,0.315,0.55,0.479
	c0.064,0.058,0.131,0.113,0.194,0.173c0.239,0.226,0.471,0.459,0.695,0.698c0.06,0.064,0.116,0.131,0.175,0.196
	c0.163,0.179,0.323,0.359,0.478,0.544c0.08,0.095,0.155,0.191,0.233,0.287c0.128,0.158,0.254,0.317,0.376,0.477
	c0.078,0.103,0.153,0.206,0.229,0.309c0.114,0.156,0.226,0.313,0.335,0.469c0.071,0.103,0.142,0.206,0.211,0.309
	c0.106,0.159,0.209,0.316,0.309,0.474c0.062,0.097,0.124,0.194,0.184,0.29c0.105,0.17,0.205,0.337,0.303,0.504
	c0.046,0.079,0.095,0.159,0.14,0.237c0.138,0.241,0.271,0.477,0.393,0.705c0.129,0.24,0.286,0.45,0.462,0.631
	c0.06,0.062,0.134,0.102,0.198,0.157c0.125,0.106,0.247,0.217,0.385,0.298c0.086,0.05,0.18,0.077,0.27,0.117
	c0.13,0.058,0.257,0.124,0.394,0.161c0.1,0.028,0.203,0.031,0.304,0.048c0.134,0.021,0.266,0.05,0.401,0.052
	c0.015,0,0.029,0.006,0.044,0.006c0.117,0,0.232-0.028,0.348-0.042c0.098-0.012,0.196-0.013,0.293-0.036
	c0.134-0.032,0.26-0.09,0.389-0.141c0.088-0.035,0.179-0.057,0.263-0.102c0.137-0.072,0.259-0.174,0.383-0.271
	c0.065-0.051,0.138-0.087,0.199-0.144c0.178-0.168,0.339-0.363,0.476-0.589c0.339-0.562,0.701-1.23,1.084-2.022
	c0.532-1.1,0.916-2.044,1.195-2.909c0.558-1.729,0.698-3.141,0.778-4.857c0.013-0.286,0.025-0.58,0.037-0.886
	c0.047-1.222,0.093-2.625,0.245-4.392c0.038-0.442,0.083-0.906,0.135-1.396c0.053-0.49,0.114-1.006,0.185-1.55
	c0.213-1.633,0.898-3.006,1.881-4.185c0.164-0.196,0.336-0.387,0.515-0.573c1.973-2.045,4.844-3.472,7.529-4.681
	c0.244-0.11,0.487-0.218,0.727-0.325c0.48-0.213,0.952-0.42,1.407-0.624c0.455-0.204,0.894-0.404,1.311-0.602
	c1.042-0.497,1.943-0.986,2.603-1.506c0.528-0.416,0.9-0.85,1.066-1.324s0.284-1.015,0.361-1.605s0.112-1.23,0.112-1.9
	s-0.036-1.37-0.101-2.082s-0.16-1.435-0.278-2.151c-0.177-1.074-0.408-2.131-0.672-3.108c-0.264-0.977-0.561-1.873-0.872-2.626
	c-0.207-0.502-0.42-0.94-0.633-1.294c-1.704-2.84-8.708-1.136-11.737-2.272c-3.029-1.136-16.092-0.947-20.446-1.514
	c-0.952-0.124-2.213-0.584-3.601-1.226c-0.701-0.324-1.435-0.697-2.178-1.094c-0.308-0.165-0.617-0.333-0.926-0.505
	c-0.211-0.118-0.422-0.237-0.633-0.358c-0.421-0.241-0.84-0.486-1.253-0.732c-0.957-0.57-1.876-1.142-2.712-1.674
	c-0.859-0.548-1.625-1.051-2.243-1.464c9.517-5.592,20.303-9.248,31.823-10.384c0.153-5.116-0.362-11.772-3.093-15.94
	c-2.257-3.444-6.014-4.714-8.733-4.449c-1.11,0.109-2.541,0.503-3.048,1.758c-1.551,3.841-5.922,5.697-9.763,4.146
	c-3.841-1.551-5.697-5.922-4.146-9.763c2.513-6.224,8.303-10.362,15.487-11.069c8.807-0.869,17.741,3.512,22.749,11.157
	c1.194,1.823,2.143,3.785,2.898,5.807l2.334-2.577c-0.915-6.696-1.469-19.707,5.736-29.293c5.397-7.181,12.156-10.671,20.664-10.671
	c1.683,0,3.228,0.122,4.591,0.229c1.003,0.079,1.95,0.154,2.677,0.154c2.953-0.013,9.094-2.294,12.329-3.832
	c2.028-0.965,4.382-0.97,6.414-0.014c2.032,0.956,3.529,2.772,4.079,4.95c0.229,0.907,5.404,22.38-12.307,38.175
	c-10.246,9.137-21.369,11.055-28.896,11.055c-0.001,0-0.001,0-0.002,0c-1.718,0-3.254-0.103-4.563-0.244l-9.478,10.464
	c30.618,3.19,56.043,24.085,65.846,52.234c-0.03,0.003-0.064,0.01-0.094,0.013c-0.175,0.021-0.357,0.048-0.546,0.078
	c-0.09,0.014-0.178,0.027-0.271,0.044c-0.253,0.045-0.516,0.098-0.791,0.16c-0.035,0.008-0.066,0.013-0.102,0.021
	c-0.309,0.072-0.634,0.159-0.97,0.257c-0.098,0.028-0.201,0.063-0.301,0.093c-0.248,0.076-0.501,0.159-0.762,0.251
	c-0.125,0.044-0.251,0.09-0.38,0.138c-0.262,0.097-0.531,0.205-0.806,0.319c-0.123,0.051-0.244,0.099-0.369,0.154
	c-0.4,0.174-0.808,0.361-1.231,0.572c-2.2,1.1-4.109,2.346-5.945,3.501c-3.06,1.924-5.919,3.596-9.586,3.92
	c-1.467,0.129-2.955,0.173-4.363,0.262c-0.352,0.022-0.699,0.047-1.039,0.077c-0.68,0.06-1.334,0.14-1.948,0.256
	c-2.764,0.522-4.73,1.778-4.73,5.272c0,0.346,0.029,0.702,0.077,1.063c0.004,0.027,0.005,0.054,0.009,0.082
	c0.049,0.346,0.123,0.698,0.213,1.053c0.011,0.044,0.021,0.088,0.032,0.132c0.092,0.346,0.203,0.696,0.329,1.047
	c0.019,0.053,0.037,0.106,0.057,0.159c0.129,0.347,0.274,0.694,0.433,1.042c0.026,0.057,0.052,0.113,0.078,0.169
	c0.163,0.347,0.339,0.692,0.528,1.036c0.029,0.053,0.059,0.105,0.089,0.158c0.195,0.347,0.401,0.691,0.618,1.03
	c0.028,0.044,0.058,0.087,0.087,0.132c0.226,0.347,0.462,0.689,0.708,1.024c0.02,0.027,0.041,0.054,0.062,0.081
	c0.26,0.349,0.527,0.691,0.805,1.022c0.001,0.001,0.002,0.003,0.004,0.004c0.279,0.332,0.566,0.653,0.858,0.963
	c0.019,0.021,0.038,0.042,0.058,0.062c0.281,0.295,0.567,0.575,0.856,0.845c0.035,0.032,0.069,0.066,0.104,0.098
	c0.281,0.258,0.566,0.502,0.852,0.732c0.042,0.034,0.084,0.069,0.126,0.102c0.282,0.223,0.565,0.43,0.848,0.621
	c0.045,0.031,0.09,0.061,0.136,0.091c0.282,0.186,0.563,0.355,0.841,0.506c0.043,0.023,0.086,0.045,0.129,0.068
	c0.281,0.147,0.559,0.276,0.832,0.382c0.037,0.014,0.072,0.026,0.109,0.039c0.279,0.103,0.554,0.188,0.822,0.245
	c0.024,0.005,0.047,0.008,0.072,0.012c0.278,0.055,0.55,0.088,0.811,0.089c0.001,0,0.003,0,0.004,0c0.101,0,0.199-0.01,0.297-0.019
	c0.043-0.004,0.088-0.003,0.13-0.008c0.141-0.018,0.279-0.046,0.413-0.083c0,0,0.001,0,0.001,0c0.196-0.055,0.414-0.126,0.64-0.205
	c0.047-0.016,0.093-0.032,0.14-0.049c0.225-0.08,0.462-0.169,0.712-0.268c0.045-0.018,0.093-0.037,0.139-0.056
	c0.239-0.095,0.486-0.197,0.744-0.305c0.035-0.015,0.069-0.029,0.105-0.044c0.284-0.12,0.581-0.249,0.885-0.382
	c0.065-0.029,0.132-0.058,0.198-0.087c0.298-0.131,0.602-0.266,0.915-0.405c0.235-0.104,0.478-0.213,0.72-0.321
	c0.15-0.067,0.301-0.134,0.453-0.202c0.331-0.147,0.668-0.297,1.008-0.446c0.074-0.033,0.149-0.065,0.224-0.098
	c0.343-0.15,0.689-0.3,1.037-0.449c0.015-0.006,0.029-0.013,0.044-0.019c0.351-0.15,0.705-0.297,1.059-0.443
	c0.075-0.031,0.149-0.061,0.224-0.092c0.35-0.143,0.701-0.282,1.05-0.417c0.059-0.023,0.117-0.044,0.176-0.067
	c0.322-0.123,0.642-0.241,0.96-0.354c0.053-0.019,0.107-0.039,0.16-0.058c0.342-0.12,0.68-0.232,1.014-0.338
	c0.073-0.023,0.146-0.045,0.218-0.068c0.339-0.104,0.673-0.202,1-0.288c0.028-0.007,0.054-0.013,0.082-0.02
	c0.307-0.079,0.606-0.147,0.9-0.207c0.061-0.012,0.122-0.026,0.183-0.037c0.302-0.058,0.596-0.104,0.881-0.138
	c0.057-0.007,0.113-0.011,0.17-0.017c0.274-0.028,0.541-0.046,0.796-0.047c0.019,0,0.04-0.002,0.059-0.002
	c0.245,0,0.477,0.018,0.701,0.046c0.055,0.007,0.11,0.015,0.164,0.024c0.212,0.034,0.415,0.078,0.604,0.14
	c0.01,0.003,0.021,0.005,0.03,0.008c0.194,0.066,0.37,0.154,0.538,0.253c0.042,0.025,0.082,0.051,0.122,0.077
	c0.161,0.109,0.314,0.228,0.445,0.374c0,0,0,0,0,0c0.389,0.432,0.696,0.909,0.941,1.419c0.123,0.255,0.23,0.518,0.324,0.788
	c0.188,0.539,0.324,1.105,0.425,1.683c0.255,1.446,0.298,2.973,0.426,4.376c0.051,0.561,0.116,1.103,0.213,1.611
	c0.194,1.017,0.518,1.901,1.122,2.548c0.453,0.485,0.955,0.946,1.47,1.375C188.101,155.683,188.312,155.85,188.524,156.013z"/>
<g>
</g>
<g>
</g>
<g>
</g>
<g>
</g>
<g>
</g>
<g>
</g>
<g>
</g>
<g>
</g>
<g>
</g>
<g>
</g>
<g>
</g>
<g>
</g>
<g>
</g>
<g>
</g>
<g>
</g>
</svg>
